<?xml version="1.0" encoding="utf-8"?>
<!-- Generator: Adobe Illustrator 24.2.0, SVG Export Plug-In . SVG Version: 6.00 Build 0)  -->
<svg version="1.1" id="图层_1" xmlns="http://www.w3.org/2000/svg" xmlns:xlink="http://www.w3.org/1999/xlink" x="0px" y="0px"
	 viewBox="0 0 200 200" style="enable-background:new 0 0 200 200;" xml:space="preserve">
<style type="text/css">
	.st0{fill:#FFFFFF;}
</style>
<path class="st0" d="M184,121.1c-5.4-5.7-8.3-13.2-8.3-21.1s2.9-15.3,8.3-21.1c2.9-3.1,3.6-7.4,2-11.3c-1.7-3.9-5.3-6.3-9.6-6.3
	h-0.2c-6.9,0-13.7,1.8-19.6,5.3c-5.7,3.4-10.5,8.2-13.9,13.9c-0.5,0.9-1.4,1.2-1.9,1.2c-0.8,0.1-1.6-0.2-2.2-0.7
	c-7.5-7.5-16.2-13.3-25.9-17.4c-10-4.2-20.7-6.4-31.7-6.4c-5.7,0-11.2,0.6-16.7,1.7L64.2,59c-6.5,1.4-12.9,3.6-19,6.6
	c-5.6,2.8-10.9,6.2-15.7,10.1l0,0c-0.4,0.3-0.8,0.7-1.2,1c-0.1,0.1-0.2,0.2-0.3,0.2l-0.9,0.8c-0.1,0.1-0.2,0.2-0.4,0.3
	c-0.3,0.3-0.6,0.6-1,0.9c-0.2,0.1-0.3,0.3-0.5,0.4c-0.2,0.2-0.4,0.4-0.6,0.6s-0.3,0.3-0.5,0.4l-0.9,0.9c-0.2,0.2-0.3,0.3-0.5,0.5
	s-0.4,0.4-0.6,0.6c-0.1,0.2-0.3,0.3-0.4,0.4L21,83.8c-0.1,0.1-0.3,0.3-0.4,0.4c-0.3,0.3-0.5,0.6-0.8,0.9c-0.1,0.1-0.1,0.2-0.2,0.2
	c-0.3,0.4-0.6,0.7-1,1.1c-0.1,0.1-0.2,0.2-0.3,0.3c-0.3,0.4-0.6,0.8-1,1.2C14.5,91.3,13,95.7,13,100s1.5,8.7,4.3,12.1
	c0.3,0.4,0.6,0.8,1,1.2c0.1,0.1,0.2,0.2,0.3,0.3c0.3,0.4,0.6,0.7,1,1.1c0.1,0.1,0.1,0.1,0.2,0.2c0.3,0.3,0.5,0.6,0.8,0.9
	c0.1,0.1,0.3,0.3,0.4,0.4c0.3,0.3,0.6,0.6,0.9,1c0.1,0.1,0.3,0.3,0.4,0.4c0.2,0.2,0.4,0.4,0.6,0.6l0.5,0.5c0.3,0.3,0.6,0.6,0.9,0.9
	c0.2,0.2,0.3,0.3,0.5,0.4c0.2,0.2,0.4,0.4,0.6,0.6c0.2,0.1,0.3,0.3,0.5,0.4c0.3,0.3,0.6,0.6,1,0.9c0.1,0.1,0.2,0.2,0.4,0.3l0.9,0.8
	c0.1,0.1,0.2,0.1,0.3,0.2c0.4,0.4,0.8,0.7,1.2,1l0,0c4.8,4,10.1,7.4,15.7,10.1c6.1,3,12.4,5.2,19,6.6l0.2,0.1
	c5.4,1.1,11,1.7,16.7,1.7c11,0,21.6-2.1,31.7-6.4c9.7-4.1,18.4-9.9,25.9-17.4c0.6-0.6,1.4-0.8,2.2-0.7c0.5,0.1,1.3,0.3,1.9,1.2
	c3.3,5.7,8.1,10.6,13.9,13.9c5.9,3.5,12.7,5.3,19.6,5.3h0.2c4.2,0,7.9-2.4,9.5-6.3C187.6,128.5,186.9,124.1,184,121.1L184,121.1z
	 M62.9,132.7c-14.9-3.8-28.4-12.3-38.3-24.1c-0.1-0.1-0.1-0.1-0.2-0.2c-0.3-0.4-0.6-0.7-0.9-1l0,0c-2.2-2.8-3-6.3-2.3-9.6
	c0.1-0.3,0.2-0.6,0.2-0.9c0.1-0.3,0.2-0.6,0.3-0.9c0.4-1.1,1-2.1,1.8-3c0.3-0.4,0.6-0.7,0.9-1.1c0.1-0.1,0.1-0.1,0.2-0.2
	C34.5,79.6,48,71.1,62.9,67.3c10.7,7.5,17,19.6,17,32.7S73.6,125.2,62.9,132.7L62.9,132.7z M178.8,129.3c-0.2,0.5-0.9,1.6-2.4,1.6
	h-0.2c-5.5,0-10.9-1.5-15.6-4.2c-4.6-2.7-8.4-6.5-11.1-11.1c-1.6-2.8-4.4-4.6-7.6-5.1c-3.2-0.4-6.4,0.6-8.8,2.9
	c-13.9,13.9-32.4,21.5-52,21.5c-2.7,0-5.4-0.2-8.1-0.4c9.4-8.9,14.7-21.3,14.7-34.5S82.3,74.4,73,65.5c2.7-0.3,5.4-0.4,8.1-0.4
	c19.6,0,38.1,7.6,52,21.5c2.3,2.3,5.5,3.4,8.8,2.9c3.2-0.4,6-2.3,7.6-5.1c2.7-4.6,6.5-8.4,11.1-11.1c4.7-2.8,10.1-4.2,15.6-4.2h0.1
	c1.5,0,2.2,1.1,2.4,1.6s0.6,1.7-0.5,2.9c-6.7,7.2-10.4,16.6-10.4,26.4s3.7,19.2,10.4,26.4C179.4,127.5,179,128.8,178.8,129.3z"/>
<path class="st0" d="M47.5,100.7c0,3.2,2.6,5.9,5.9,5.9s5.9-2.6,5.9-5.9c0-3.2-2.6-5.9-5.9-5.9S47.5,97.4,47.5,100.7z"/>
</svg>
